<?xml version="1.0" encoding="utf-8"?>
<!-- Generator: Adobe Illustrator 17.1.0, SVG Export Plug-In . SVG Version: 6.00 Build 0)  -->
<!DOCTYPE svg PUBLIC "-//W3C//DTD SVG 1.1//EN" "http://www.w3.org/Graphics/SVG/1.1/DTD/svg11.dtd">
<svg version="1.1" id="レイヤー_1" xmlns="http://www.w3.org/2000/svg" xmlns:xlink="http://www.w3.org/1999/xlink" x="0px"
	 y="0px" viewBox="0 0 405.1 140.5" enable-background="new 0 0 405.1 140.5" xml:space="preserve">
<path fill="#D54E21" d="M405.1,140.5c0,0-114-12-200.2-12s-201.8,12-201.8,12l20-23.5l-20-22.5c0,0,90.4-12,201-12s201,12,201,12
	l-20,22.5L405.1,140.5z"/>
<g>
	<path fill="#237093" d="M226.2,34.4H211V36c4.7,0,5.5,1,5.5,7v10.8c0,6-0.8,7.1-5.5,7.1c-3.6-0.5-6.1-2.5-9.5-6.2l-3.9-4.2
		c5.2-0.9,8-4.2,8-8c0-4.7-4-8.2-11.4-8.2h-14.9V36c4.7,0,5.5,1,5.5,7v10.8c0,6-0.8,7.1-5.5,7.1v1.6h16.8v-1.6
		c-4.7,0-5.5-1.1-5.5-7.1v-3h1.4l9.4,11.8h24.6c12.1,0,17.4-6.4,17.4-14.1C243.5,40.7,238.3,34.4,226.2,34.4z M190.7,48.2V36.9h3.5
		c3.8,0,5.5,2.6,5.5,5.7c0,3-1.7,5.6-5.5,5.6H190.7z M226.4,59.9h-0.6c-3,0-3.5-0.8-3.5-4.7V36.9c0,0,3.7,0,4.1,0
		c8.8,0,10.4,6.4,10.4,11.4C236.8,53.5,235.2,59.9,226.4,59.9z"/>
	<path fill="#237093" d="M132.2,51.3l5.8-17.3c1.7-5,0.9-6.4-4.5-6.4v-1.7h15.9v1.7c-5.3,0-6.6,1.3-8.7,7.4L131.1,64H130l-8.6-26.5
		L112.6,64h-1.1L102.1,35c-2-6.2-3.4-7.4-8.3-7.4v-1.7h18.8v1.7c-5,0-6.3,1.2-4.6,6.4l5.7,17.3l8.5-25.4h1.6L132.2,51.3z"/>
	<path fill="#237093" d="M161,63.7c-9.3,0-16.9-6.9-16.9-15.2c0-8.3,7.6-15.2,16.9-15.2c9.3,0,16.9,6.9,16.9,15.2
		C177.9,56.8,170.3,63.7,161,63.7z M161,35.9c-7.8,0-10.5,7-10.5,12.5c0,5.6,2.7,12.5,10.5,12.5c7.9,0,10.6-6.9,10.6-12.5
		C171.6,42.9,168.9,35.9,161,35.9z"/>
	<path fill="#464546" d="M264.4,60.9v1.7H245v-1.7c5.7,0,6.7-1.4,6.7-9.9V37.4c0-8.5-1-9.8-6.7-9.8v-1.7h17.5
		c8.7,0,13.5,4.5,13.5,10.5c0,5.8-4.8,10.4-13.5,10.4h-4.8V51C257.7,59.4,258.8,60.9,264.4,60.9z M262.6,29h-4.8v14.7h4.8
		c4.7,0,6.9-3.3,6.9-7.3C269.5,32.3,267.3,29,262.6,29z"/>
	<path fill="#464546" d="M334.3,54.6l-0.4,1.5c-0.8,2.8-1.7,3.8-7.7,3.8h-1.2c-4.4,0-5.2-1-5.2-7V49c6.6,0,7.1,0.6,7.1,5h1.6V41.4
		h-1.6c0,4.4-0.5,5-7.1,5v-9.5h4.7c6,0,6.9,1,7.7,3.8l0.4,1.6h1.4l-0.6-8h-24.9V36c4.7,0,5.5,1,5.5,7v10.8c0,5.5-0.6,6.9-4.4,7.1
		c-3.6-0.5-6-2.5-9.3-6.1l-3.9-4.2c5.2-0.9,8-4.2,8-8c0-4.7-4-8.2-11.4-8.2h-14.9V36c4.7,0,5.5,1,5.5,7v10.8c0,6-0.8,7.1-5.5,7.1
		v1.6h16.8v-1.6c-4.7,0-5.5-1.1-5.5-7.1v-3h1.4l9.4,11.8H335l0.5-8H334.3z M289.4,48.2V36.9h3.5c3.8,0,5.5,2.6,5.5,5.7
		c0,3-1.7,5.6-5.5,5.6H289.4z"/>
	<path fill="#464546" d="M351.4,63.7c-3.4,0-6.3-1.8-7.6-2.9c-0.4,0.4-1.2,1.7-1.4,2.9h-1.6V52h1.7c0.7,5.6,4.6,8.9,9.6,8.9
		c2.7,0,4.9-1.5,4.9-4.1c0-2.2-1.9-3.9-5.4-5.5l-4.8-2.3c-3.4-1.6-5.9-4.4-5.9-8.1c0-4.1,3.8-7.5,9.1-7.5c2.8,0,5.2,1,6.6,2.2
		c0.4-0.3,0.8-1.3,1.1-2.3h1.6v10h-1.8c-0.6-4-2.8-7.3-7.3-7.3c-2.4,0-4.6,1.4-4.6,3.5c0,2.2,1.8,3.4,5.8,5.2l4.7,2.3
		c4.1,1.9,5.7,5.1,5.7,7.6C361.8,59.9,357.1,63.7,351.4,63.7z"/>
	<path fill="#464546" d="M377.5,63.7c-3.4,0-6.3-1.8-7.6-2.9c-0.4,0.4-1.2,1.7-1.4,2.9h-1.6V52h1.7c0.7,5.6,4.6,8.9,9.6,8.9
		c2.7,0,4.9-1.5,4.9-4.1c0-2.2-1.9-3.9-5.4-5.5l-4.8-2.3c-3.4-1.6-5.9-4.4-5.9-8.1c0-4.1,3.8-7.5,9.1-7.5c2.8,0,5.2,1,6.6,2.2
		c0.4-0.3,0.8-1.3,1.1-2.3h1.6v10h-1.8c-0.6-4-2.8-7.3-7.3-7.3c-2.4,0-4.6,1.4-4.6,3.5c0,2.2,1.8,3.4,5.8,5.2l4.7,2.3
		c4.1,1.9,5.7,5.1,5.7,7.6C387.8,59.9,383.2,63.7,377.5,63.7z"/>
	<g>
		<path fill="#464546" d="M9.2,43.7c0,14.8,8.6,27.6,21.1,33.7l-17.9-49C10.3,33.1,9.2,38.2,9.2,43.7z"/>
		<path fill="#464546" d="M71.9,41.8c0-4.6-1.7-7.8-3.1-10.3c-1.9-3.1-3.7-5.7-3.7-8.8c0-3.4,2.6-6.6,6.3-6.6c0.2,0,0.3,0,0.5,0
			c-6.7-6.1-15.5-9.8-25.3-9.8c-13.1,0-24.6,6.7-31.3,16.9c0.9,0,1.7,0,2.4,0c3.9,0,10-0.5,10-0.5c2-0.1,2.3,2.8,0.2,3.1
			c0,0-2,0.2-4.3,0.4l13.6,40.6l8.2-24.6l-5.8-16c-2-0.1-3.9-0.4-3.9-0.4c-2-0.1-1.8-3.2,0.2-3.1c0,0,6.2,0.5,9.9,0.5
			c3.9,0,10-0.5,10-0.5c2-0.1,2.3,2.8,0.2,3.1c0,0-2,0.2-4.3,0.4l13.5,40.3L69,53.9C70.7,48.7,71.9,45,71.9,41.8z"/>
		<path fill="#464546" d="M47.3,46.9L36,79.6c3.4,1,6.9,1.5,10.6,1.5c4.4,0,8.5-0.8,12.4-2.1c-0.1-0.2-0.2-0.3-0.3-0.5L47.3,46.9z"
			/>
		<path fill="#464546" d="M79.5,25.7c0.2,1.2,0.3,2.5,0.3,3.9c0,3.8-0.7,8.1-2.8,13.4L65.4,76c11.1-6.5,18.6-18.6,18.6-32.4
			C84.1,37.2,82.4,31,79.5,25.7z"/>
		<path fill="#464546" d="M46.6,0C22.5,0,3,19.6,3,43.7c0,24.1,19.6,43.7,43.7,43.7c24.1,0,43.7-19.6,43.7-43.7
			C90.3,19.6,70.7,0,46.6,0z M46.6,85.3C23.6,85.3,5,66.6,5,43.7C5,20.7,23.6,2,46.6,2c23,0,41.7,18.7,41.7,41.7
			C88.3,66.6,69.6,85.3,46.6,85.3z"/>
	</g>
</g>
<g>
	<path fill="#FFFFFF" d="M119.4,97.2l4.9-0.2l0.7,14.1c0.1,1.6,0.3,2.7,0.7,3.4c0.6,1.3,1.9,1.8,3.9,1.7c1.9-0.1,3.2-0.8,3.7-2.1
		c0.3-0.7,0.5-1.9,0.4-3.5l-0.7-14.1l4.9-0.2l0.7,14.1c0.1,2.4-0.2,4.4-0.9,5.8c-1.3,2.6-3.9,3.9-7.9,4.1c-4,0.2-6.7-0.9-8.3-3.3
		c-0.8-1.3-1.3-3.2-1.4-5.7L119.4,97.2z"/>
	<path fill="#FFFFFF" d="M146.4,113.6c0.1,0.8,0.3,1.3,0.7,1.7c0.6,0.6,1.6,0.8,3.1,0.8c0.9,0,1.6-0.2,2.1-0.5
		c0.5-0.3,0.8-0.7,0.7-1.2c0-0.5-0.2-0.9-0.7-1.1c-0.4-0.2-2-0.6-4.7-1.2c-2-0.4-3.3-1-4.2-1.6c-0.8-0.7-1.3-1.7-1.3-3
		c-0.1-1.6,0.5-2.9,1.7-4.1c1.2-1.2,2.9-1.8,5.2-1.9c2.1-0.1,3.9,0.3,5.3,1.1c1.4,0.8,2.2,2.2,2.5,4.3l-4.5,0.2
		c-0.1-0.6-0.3-1-0.5-1.3c-0.5-0.6-1.4-0.9-2.5-0.8c-1,0-1.7,0.2-2.1,0.5c-0.4,0.3-0.6,0.7-0.6,1.1c0,0.5,0.3,0.9,0.7,1.1
		c0.4,0.2,2,0.6,4.7,1.1c1.8,0.3,3.1,0.9,4.1,1.7c0.9,0.8,1.4,1.9,1.4,3.2c0.1,1.7-0.5,3.1-1.7,4.2c-1.2,1.1-3.1,1.7-5.8,1.8
		c-2.7,0.1-4.7-0.4-6-1.5c-1.3-1.1-2-2.5-2.1-4.2L146.4,113.6z"/>
	<path fill="#FFFFFF" d="M171.5,101.5c1.2,0.5,2.2,1.3,3,2.4c0.7,1,1.2,2.2,1.5,3.5c0.1,0.8,0.2,1.9,0.2,3.4l-12.4,0.3
		c0.1,1.7,0.7,2.9,1.9,3.5c0.7,0.4,1.5,0.6,2.5,0.6c1,0,1.8-0.3,2.5-0.8c0.3-0.3,0.6-0.7,0.9-1.2l4.5-0.1c-0.1,1-0.6,2.1-1.6,3.1
		c-1.5,1.7-3.6,2.6-6.3,2.7c-2.3,0.1-4.3-0.6-6.1-1.9c-1.8-1.3-2.7-3.6-2.8-6.7c-0.1-2.9,0.6-5.2,2.2-6.8c1.5-1.6,3.5-2.5,6-2.5
		C169,100.8,170.3,101,171.5,101.5z M165,105.5c-0.6,0.7-1,1.6-1.1,2.7l7.7-0.2c-0.1-1.2-0.5-2.1-1.3-2.7c-0.7-0.6-1.6-0.9-2.7-0.8
		C166.4,104.5,165.6,104.9,165,105.5z"/>
	<path fill="#FFFFFF" d="M187.7,100.4c0.1,0,0.2,0,0.4,0l0.1,4.6c-0.3,0-0.5,0-0.8,0c-0.2,0-0.4,0-0.5,0c-1.8,0-3,0.6-3.6,1.8
		c-0.3,0.7-0.5,1.7-0.5,3l0.1,8.1l-4.5,0.1l-0.3-17l4.2-0.1l0.1,3c0.7-1.1,1.3-1.9,1.8-2.4c0.8-0.7,1.9-1.1,3.2-1.1
		C187.6,100.4,187.7,100.4,187.7,100.4z"/>
	<path fill="#FFFFFF" d="M215.4,94.6l6.9,0l0,23l-4.5,0l0-15.6c0-0.4,0-1.1,0-1.9c0-0.8,0-1.4,0-1.9l-4.3,19.3l-4.7,0l-4.4-19.3
		c0,0.4,0,1.1,0,1.9c0,0.8,0,1.4,0,1.9l0,15.6l-4.5,0l0-23l7,0l4.2,18.1L215.4,94.6z"/>
	<path fill="#FFFFFF" d="M233.3,107.5c0.8-0.1,1.4-0.2,1.8-0.4c0.6-0.3,1-0.7,1-1.3c0-0.7-0.2-1.2-0.7-1.5c-0.5-0.3-1.2-0.4-2.2-0.4
		c-1.1,0-1.8,0.2-2.3,0.8c-0.3,0.4-0.5,0.9-0.7,1.6l-4.3-0.1c0.1-1.5,0.5-2.7,1.3-3.7c1.2-1.5,3.2-2.2,6.1-2.2c1.9,0,3.5,0.4,5,1.2
		c1.4,0.8,2.2,2.2,2.1,4.2l-0.1,7.8c0,0.5,0,1.2,0,2c0,0.6,0.1,1,0.2,1.2c0.1,0.2,0.4,0.4,0.6,0.5l0,0.7l-4.8-0.1
		c-0.1-0.3-0.2-0.7-0.3-1s-0.1-0.6-0.1-1c-0.6,0.7-1.3,1.2-2.2,1.7c-1,0.5-2.1,0.8-3.3,0.8c-1.6,0-2.8-0.5-3.8-1.4
		c-1-0.9-1.5-2.1-1.5-3.8c0-2.1,0.9-3.6,2.5-4.5c0.9-0.5,2.2-0.8,3.9-1L233.3,107.5z M236,109.6c-0.3,0.2-0.6,0.3-0.9,0.4
		c-0.3,0.1-0.7,0.2-1.2,0.3l-1,0.2c-1,0.2-1.6,0.3-2.1,0.6c-0.7,0.4-1.1,1-1.1,1.9c0,0.8,0.2,1.3,0.6,1.7c0.4,0.3,0.9,0.5,1.6,0.5
		c1,0,1.9-0.3,2.7-0.8c0.8-0.6,1.3-1.6,1.3-3.1L236,109.6z"/>
	<path fill="#FFFFFF" d="M258.3,102.3c1.1,0.9,1.6,2.5,1.6,4.6l-0.3,11.5l-4.6-0.1l0.3-10.4c0-0.9-0.1-1.6-0.3-2.1
		c-0.4-0.9-1.2-1.3-2.4-1.4c-1.5,0-2.5,0.6-3.1,1.8c-0.3,0.7-0.5,1.5-0.5,2.6l-0.2,9.2l-4.5-0.1l0.4-17l4.3,0.1l-0.1,2.5
		c0.6-0.9,1.1-1.5,1.7-1.8c0.9-0.7,2.1-1,3.5-0.9C255.8,100.9,257.2,101.4,258.3,102.3z"/>
	<path fill="#FFFFFF" d="M268.7,101.7l-0.4,10.3c0,1,0.1,1.7,0.3,2.2c0.4,0.9,1.1,1.3,2.3,1.4c1.5,0.1,2.6-0.5,3.2-1.7
		c0.3-0.7,0.5-1.5,0.5-2.6l0.3-9.3l4.5,0.2l-0.6,17l-4.3-0.2l0.1-2.4c0,0.1-0.2,0.2-0.3,0.5c-0.2,0.3-0.4,0.5-0.6,0.7
		c-0.7,0.6-1.4,1-2.1,1.2s-1.4,0.3-2.3,0.3c-2.5-0.1-4.2-1.1-5-2.9c-0.5-1-0.6-2.5-0.6-4.4l0.4-10.3L268.7,101.7z"/>
	<path fill="#FFFFFF" d="M290.3,109.2c0.8-0.1,1.4-0.2,1.8-0.3c0.7-0.2,1-0.6,1-1.2c0-0.7-0.2-1.2-0.7-1.5s-1.2-0.5-2.1-0.5
		c-1.1-0.1-1.8,0.2-2.3,0.7c-0.3,0.4-0.6,0.9-0.7,1.5l-4.3-0.2c0.2-1.5,0.6-2.7,1.4-3.6c1.3-1.4,3.3-2.1,6.2-2
		c1.9,0.1,3.5,0.5,4.9,1.3c1.4,0.8,2.1,2.2,2,4.3l-0.4,7.8c0,0.5,0,1.2-0.1,2c0,0.6,0.1,1,0.2,1.2c0.1,0.2,0.3,0.4,0.6,0.5l0,0.7
		l-4.8-0.2c-0.1-0.3-0.2-0.7-0.2-1c0-0.3-0.1-0.6-0.1-1c-0.6,0.6-1.4,1.2-2.2,1.6c-1,0.5-2.1,0.7-3.3,0.7c-1.5-0.1-2.8-0.6-3.8-1.5
		s-1.4-2.2-1.3-3.8c0.1-2.1,1-3.6,2.7-4.4c0.9-0.5,2.2-0.8,4-0.9L290.3,109.2z M292.9,111.4c-0.3,0.2-0.6,0.3-0.9,0.4
		c-0.3,0.1-0.7,0.2-1.2,0.2l-1,0.1c-1,0.1-1.6,0.3-2.1,0.5c-0.7,0.4-1.1,1-1.1,1.8c0,0.8,0.2,1.3,0.6,1.7s0.9,0.6,1.5,0.6
		c1,0,1.9-0.2,2.7-0.7s1.3-1.5,1.4-3L292.9,111.4z"/>
	<path fill="#FFFFFF" d="M305.4,120.4l-4.4-0.2l1.3-23l4.4,0.2L305.4,120.4z"/>
</g>
</svg>
